<svg width="26" height="25" fill="none" xmlns="http://www.w3.org/2000/svg"><path fill-rule="evenodd" clip-rule="evenodd" d="M13 0C6.096 0 .5 5.596.5 12.5S6.096 25 13 25s12.5-5.596 12.5-12.5S19.904 0 13 0ZM7.14 8.594c0-1.079.875-1.953 1.954-1.953h7.812c1.079 0 1.953.874 1.953 1.953v7.812a1.953 1.953 0 0 1-1.953 1.953H9.094a1.953 1.953 0 0 1-1.953-1.953V8.594Zm-1.171 0c0-1.726 1.399-3.125 3.125-3.125h7.812c1.726 0 3.125 1.399 3.125 3.125v7.812c0 1.726-1.399 3.125-3.125 3.125H9.094a3.125 3.125 0 0 1-3.125-3.125V8.594ZM13 15.234a2.734 2.734 0 1 0 0-5.468 2.734 2.734 0 0 0 0 5.468Zm0 1.172a3.906 3.906 0 1 0 0-7.812 3.906 3.906 0 0 0 0 7.812Zm3.71-6.64a.977.977 0 1 0 .001-1.953.977.977 0 0 0 0 1.953Z" fill="#fff"/></svg>