<svg xmlns="http://www.w3.org/2000/svg" xml:space="preserve" style="enable-background:new 0 0 2834.6 2834.6" viewBox="0 0 2834.6 2834.6">
  <path d="M1432.3 1971.6a21 21 0 0 0 12.9-4.4c1.6-1.3 2.8-2.9 3.8-4.6s1.4-3.5 1.4-5.3c0-3-.7-5.5-2.2-7.7a22 22 0 0 0-5.9-5.9 44 44 0 0 0-8.3-4.8l-9.5-4.4c-3.2-1.5-6.4-3.2-9.5-4.9s-5.9-3.8-8.3-6.1a24 24 0 0 1-8.1-18.8c0-3.9.8-7.5 2.5-10.8a26 26 0 0 1 6.9-8.6c2.9-2.4 6.4-4.3 10.4-5.6a51.4 51.4 0 0 1 22.2-1.3c2.8.5 5.6 1.3 8.2 2.6 2.7 1.3 5.3 3.1 8 5.4a66 66 0 0 1 8.4 9.3l-7 6.2c-3.7-6-7.8-10.5-12.3-13.4a26.6 26.6 0 0 0-22.1-3.4c-2.3.7-4.2 1.6-5.8 2.8a13.4 13.4 0 0 0-3.8 4.1 9.8 9.8 0 0 0-1.3 5c0 2.9.8 5.4 2.4 7.6 1.6 2.1 3.8 4.1 6.4 5.9 2.7 1.8 5.6 3.4 9 4.8l10.3 4.4c3.5 1.5 7 3.2 10.3 4.9 3.4 1.8 6.4 3.8 9 6.1a29 29 0 0 1 6.4 8c1.6 3 2.4 6.6 2.4 10.6 0 4.1-.8 7.9-2.3 11.5a24.1 24.1 0 0 1-6.9 9.3 34.1 34.1 0 0 1-11.5 6.2 52.5 52.5 0 0 1-34-1 43.5 43.5 0 0 1-18-14.7l7.8-7.1c2.3 3.3 4.6 6.1 6.7 8.5 2.2 2.3 4.3 4.2 6.6 5.7 2.2 1.5 4.5 2.6 6.9 3.2 2.6.4 5.1.7 7.9.7zM1573.9 1963.9a27.8 27.8 0 0 1-25.9 14.4c-3.2 0-6.1-.5-8.5-1.6a15 15 0 0 1-5.9-4.6 18 18 0 0 1-3.4-7.1c-.7-2.8-1.1-5.8-1.1-9.2v-68.1h-16.7v-4.8c5.4 0 9.8-1 13.3-2.9s6.4-4.6 8.6-7.9a41 41 0 0 0 5.2-11.6c1.3-4.4 2.4-9 3.3-13.9h5.5v33h21.7v8.2h-21.7v68.1a10.2 10.2 0 0 0 10.5 10.4c2.2 0 4.2-.5 5.9-1.6 1.8-1.1 3.3-2.4 4.6-3.9l4.6 3.1zM1638.5 1879.5v68.8c0 2.4.6 4.6 1.7 6.7 1.1 2.1 2.6 3.9 4.6 5.5a23 23 0 0 0 15 5.2c1.9 0 4-.4 6.1-1.2a30 30 0 0 0 12.2-8.3 32 32 0 0 0 4.6-6v-70.6h19.2v96.7h-19.2v-18.1a47.6 47.6 0 0 1-23.9 18.6 26.6 26.6 0 0 1-8.9 1.6 29.8 29.8 0 0 1-21.6-8.9 29.8 29.8 0 0 1-8.9-21.1v-68.8h19.1zM1826.5 1966.7a63.3 63.3 0 0 1-23.6 10.7c-2.9.5-5.6.8-8.3.8a33 33 0 0 1-16-4 42.8 42.8 0 0 1-13-10.7 56.8 56.8 0 0 1-11.9-34.6c0-6.6 1.3-12.9 4-19.1a55.7 55.7 0 0 1 27-28.1 45.4 45.4 0 0 1 19.7-4.3c4.7 0 8.9.8 12.4 2.5s6.8 3.8 9.7 6.5v-51l13.4-5.4h5.6v148.2h-19.1v-11.5zm0-56.5a25.1 25.1 0 0 0-15.4-23.6 22.8 22.8 0 0 0-8.7-1.9c-3.8 0-7.4 1-10.8 2.9a26.5 26.5 0 0 0-8.7 8 43.9 43.9 0 0 0-5.9 12.3 60.8 60.8 0 0 0 .2 33c1.6 5.4 3.8 10 6.5 14 2.8 4 6 7.1 9.7 9.4a22.2 22.2 0 0 0 17.9 2.6 31.4 31.4 0 0 0 15.2-9.2v-47.5zM1912.2 1830c1.5 0 2.9.2 4.3.7 1.4.5 2.6 1.2 3.5 2.1 1 .9 1.8 1.9 2.4 3.1a8.2 8.2 0 0 1 0 7.5 11.3 11.3 0 0 1-5.9 5.2 11.6 11.6 0 0 1-14.4-5.2 8 8 0 0 1-.9-3.7c0-1.3.3-2.6.9-3.8a11.3 11.3 0 0 1 10.1-5.9zm-9.3 53 13.4-5.5h5.6v98.7h-19.1V1883zM2026.3 1978.3a53 53 0 0 1-36.7-14.5 48.4 48.4 0 0 1-14.4-34.8 54 54 0 0 1 3.8-20.1 50.4 50.4 0 0 1 47.3-31.6 51.9 51.9 0 0 1 36.6 13.9 45.8 45.8 0 0 1 14.4 33.7c0 7.3-1.3 14.2-3.8 20.7a51.5 51.5 0 0 1-26.8 28.3c-6.3 3-13.1 4.4-20.4 4.4zm3.6-7.2c3.8 0 7.3-1 10.4-2.9 3.1-1.9 5.9-4.5 8.1-7.8a40 40 0 0 0 5.4-11.4c1.3-4.3 1.9-8.9 1.9-13.8 0-7-.6-13.6-1.8-19.7a49.6 49.6 0 0 0-5.8-16 30.8 30.8 0 0 0-10.5-10.7 30.5 30.5 0 0 0-15.9-3.9c-3.2 0-6.4.9-9.4 2.8s-5.7 4.4-8 7.7a42.6 42.6 0 0 0-7.7 25.1c0 7.1.7 13.7 2.2 19.9a52.2 52.2 0 0 0 6.5 16.1 34 34 0 0 0 10.5 10.8 27 27 0 0 0 14.1 3.8zM741.1 1330.8c0 7.4-3.8 11.1-11.5 11.1-7.4 0-11.1-3.7-11.1-11.1V977.6c0-7.4 3.7-11.1 11.1-11.1 7.6 0 11.5 3.7 11.5 11.1v42.9a130.5 130.5 0 0 1 77.9-53.4 141.5 141.5 0 0 1 72.9 1.5c12.5 3.7 24 8.9 34.4 15.7a122.2 122.2 0 0 1 27.9 24.9c8.2 9.8 14.9 20.9 20.3 33.1a128.4 128.4 0 0 1 47.8-58 131 131 0 0 1 34.6-15.7 139.8 139.8 0 0 1 91.1 4.5 132.5 132.5 0 0 1 71 68.9c7.1 15.8 11 33 11.5 51.7V1331c0 7.4-4 11.1-11.9 11.1-7.4 0-11.1-3.7-11.1-11.1v-237.3a111.8 111.8 0 0 0-68.3-99.6 109.5 109.5 0 0 0-42.7-8.4 110.3 110.3 0 0 0-77.1 30.6 108.2 108.2 0 0 0-34.2 74.6v239.9c0 7.4-3.6 11.1-10.7 11.1-7.9 0-11.9-3.7-11.9-11.1v-239.9a111.4 111.4 0 0 0-33.7-74.6c-10-9.4-21.5-16.9-34.6-22.4a107.2 107.2 0 0 0-41.9-8.2 112.9 112.9 0 0 0-78.6 32.1 112 112 0 0 0-23.9 35.2 106.7 106.7 0 0 0-8.8 43.2v234.6zM1274.3 1155.2c0-27 5.1-52.4 15.3-76.1A195.9 195.9 0 0 1 1393.1 975a188.5 188.5 0 0 1 75.6-15.3c27 0 52.4 5.1 76.2 15.3a198.8 198.8 0 0 1 62.2 41.9 197.6 197.6 0 0 1 41.9 62.2 190.6 190.6 0 0 1 15.3 76.1c0 26.8-5.1 52-15.3 75.8a197.6 197.6 0 0 1-41.9 62.2 197.6 197.6 0 0 1-62.2 41.9 190.7 190.7 0 0 1-76.2 15.3c-26.8 0-52-5.1-75.6-15.3a195.9 195.9 0 0 1-118.8-179.9zm21.8 0c0 23.7 4.6 46.1 13.8 67.2a177 177 0 0 0 92.8 92.4c21 9.2 43.4 13.8 67.2 13.8 23.7 0 46.1-4.6 67.2-13.8 21-9.2 39.4-21.6 55.1-37.3a178.2 178.2 0 0 0 37.3-55.1 166 166 0 0 0 13.8-67.2c0-23.7-4.6-46.2-13.8-67.3a176.8 176.8 0 0 0-92.4-92.6c-21-9.2-43.4-13.8-67.2-13.8-23.7 0-46.1 4.6-67.2 13.8a175.6 175.6 0 0 0-92.8 92.6 166.8 166.8 0 0 0-13.8 67.3zM2078.5 1329.3c0 7.9-3.6 11.9-10.7 11.9-7.9 0-11.9-3.9-11.9-11.9v-95.7a975 975 0 0 0-10.7 25.8 96 96 0 0 1-14.5 25.1h.8a195 195 0 0 1-61.8 49.2 168.8 168.8 0 0 1-77.1 17.8c-25.3 0-49.1-5.2-71.6-15.5a184.4 184.4 0 0 1-58.7-42.3 202.1 202.1 0 0 1-54.1-139.3 203.6 203.6 0 0 1 54.1-138.5c16.7-17.9 36.3-32 58.7-42.3a169.5 169.5 0 0 1 146.6 2.3 204.7 204.7 0 0 1 61.2 46.5c2.8 3.1 5.5 6.8 8 11.3a229.4 229.4 0 0 1 13.8 28.5l5.4 13V531.4c0-7.4 4 5 11.9 5 7.1 0 10.7 3.7 10.7 11.1v781.8zm-23.7-174.9c0-23.7-4.3-46.2-12.8-67.4a184.7 184.7 0 0 0-34.8-55.7 163.7 163.7 0 0 0-51.7-37.7 147.6 147.6 0 0 0-62.9-13.8c-22.7 0-43.9 4.6-63.5 13.8a161.6 161.6 0 0 0-51.3 37.7 181.8 181.8 0 0 0-47 123.1 183.3 183.3 0 0 0 47 123.6 164 164 0 0 0 51.3 37.7c19.6 9.3 40.8 14 63.5 14 22.2 0 43.2-4.7 62.9-14 19.8-9.3 37-21.9 51.7-37.7a181 181 0 0 0 47.6-123.6zM740.3 1617.8c0 23.7 4.6 45.9 13.8 66.6a172.1 172.1 0 0 0 92.2 90.2 169.9 169.9 0 0 0 66.6 13.2 172.5 172.5 0 0 0 119.8-45.6c2.3-2.3 4.7-3.5 7.3-3.5 2 0 4.3 1.1 6.9 3.3 2.5 2.2 3.8 4.8 3.8 7.8 0 3.3-2 6.6-6.1 10v-.8a188.6 188.6 0 0 1-59.5 37.7 194 194 0 0 1-71 12.8c-27 0-52.4-5.1-76.1-15.3a195.6 195.6 0 0 1-104.1-103.7 190.7 190.7 0 0 1-15.3-76.2 202.8 202.8 0 0 1 53.3-138.3 184.7 184.7 0 0 1 57.6-41.9 164 164 0 0 1 136.6-1 183 183 0 0 1 55.5 39.2 207.7 207.7 0 0 1 57 130.1c.5 1 .8 1.9.8 2.5v1.7c0 7.4-3.6 11.1-10.7 11.1H740.3zM898.7 1441c-20.2 0-39.2 4-57.2 11.9s-34.1 18.7-48.2 32.5-25.9 30-35.2 48.8c-9.3 18.7-15.2 39-17.8 60.7h316.5a176 176 0 0 0-52-109.3 162.4 162.4 0 0 0-48.6-32.7 142.7 142.7 0 0 0-57.5-11.9zM1349.2 1445.4c1.3 1 2.5 2.2 3.6 3.6a8.2 8.2 0 0 1 1.7 5.5c0 3.3-1 6.1-3.1 8.2s-4.6 3.3-7.7 3.3c-1.5 0-3.1-.2-4.6-.6a8.3 8.3 0 0 1-3.8-2.1 153.1 153.1 0 0 0-35.2-17 120 120 0 0 0-39.4-6.7c-16.3 0-31.4 3.4-45.2 10.1a111.6 111.6 0 0 0-35.8 27.9 131 131 0 0 0-23.5 41.5 150.3 150.3 0 0 0-8.4 50.5l-1.9 908.9c0 7.4-3.8 1.4-11.5 1.4-7.4 0-11.1.6-11.1-6.8V1434c0-7.4 3.7-11.1 11.1-11.1 7.6 0 11.5 3.7 11.5 11.1v58.9a104.4 104.4 0 0 1 43.6-56.6c9.9-6.4 20.9-11.2 32.7-14.3 11.9-3.2 24-4.8 36.5-4.8 16.6 0 32.6 2.5 48 7.5a152.6 152.6 0 0 1 42.5 20.7zM1421.1 1790c0 7.4-3.8 11.1-11.5 11.1-7.4 0-11.1-3.7-11.1-11.1v-353.2c0-7.4 3.7-11.1 11.1-11.1 7.6 0 11.5 3.7 11.5 11.1v55.5a151.5 151.5 0 0 1 55.8-54.9 155.7 155.7 0 0 1 78.7-20.1 154.7 154.7 0 0 1 111 45.7 157.5 157.5 0 0 1 33.4 49.7c8.2 19 12.2 39.4 12.2 61V1790c0 7.4-3.6 11.1-10.9 11.1-7.3 0-10.9-3.7-10.9-11.1v-217.7c-.5-18.6-4.3-36-11.3-52.2a131.6 131.6 0 0 0-123.4-80.1 138 138 0 0 0-51.9 9.8 129.7 129.7 0 0 0-71 68.1 135.3 135.3 0 0 0-11.9 51.1v221z"/>
	<path d="M1413.9 2526c-611.3 0-1108.7-497.4-1108.7-1108.7S802.5 308.6 1413.9 308.6 2522.5 806 2522.5 1417.3 2025.2 2526 1413.9 2526zm0-2194.4c-598.7 0-1085.7 487.1-1085.7 1085.7S815.2 2503 1413.9 2503s1085.7-487 1085.7-1085.7S2012.5 331.6 1413.9 331.6z"/>
	<path d="M718.5 959.6h1360v1057.1h-1360z" style="fill:none"/>
</svg>